<?xml version="1.0" encoding="utf-8"?>
<!-- Generator: Adobe Illustrator 18.0.0, SVG Export Plug-In . SVG Version: 6.00 Build 0)  -->
<!DOCTYPE svg PUBLIC "-//W3C//DTD SVG 1.1//EN" "http://www.w3.org/Graphics/SVG/1.1/DTD/svg11.dtd">
<svg version="1.1" id="Layer_1" xmlns="http://www.w3.org/2000/svg" xmlns:xlink="http://www.w3.org/1999/xlink" x="0px" y="0px"
	 viewBox="0 0 40 40" enable-background="new 0 0 40 40" xml:space="preserve">
<g>
	<g>
		<path d="M17.1,18.9L17,17.8h-0.8v5.3h0.9v-3c0.2-1,0.6-1.5,1.3-1.5c0.2,0,0.3,0,0.5,0.1l0.2-0.9c-0.2,0-0.3-0.1-0.5-0.1
			C17.9,17.7,17.4,18.1,17.1,18.9z M7.5,28.5H5.9v3.7c0,0,0.2,0.9,0.9,0.9h3.8v-1.7h-3V28.5z M13.1,22.4c-1.1,0-1.9-0.8-1.9-2.8
			c0-2.1,0.9-2.8,1.9-2.8c0.5,0,0.9,0.2,1.3,0.5l0.5-0.6c-0.5-0.4-1-0.7-1.9-0.7c-1.6,0-2.9,1.2-2.9,3.6c0,2.3,1.2,3.6,2.9,3.6
			c0.9,0,1.6-0.4,2-0.8l-0.5-0.6C14.2,22.1,13.8,22.4,13.1,22.4z M7.5,8.5h3V6.8H6.7c-0.7,0-0.9,0.9-0.9,0.9v3.8h1.7V8.5z M22,17.7
			c-1.5,0-2.4,1.1-2.4,2.8c0,1.7,0.8,2.7,2.3,2.7c1.5,0,2.3-1.1,2.3-2.8C24.3,18.8,23.5,17.7,22,17.7z M22,22.4
			c-0.9,0-1.4-0.6-1.4-2c0-1.4,0.5-2,1.4-2c0.9,0,1.3,0.6,1.3,2C23.3,21.8,22.8,22.4,22,22.4z M32.5,31.5h-3v1.7h3.7
			c0.7,0,0.9-0.9,0.9-0.9v-3.7h-1.6V31.5z M33.3,6.8h-3.7v1.6h3v3h1.6V7.7C34.1,7.7,34,6.8,33.3,6.8z M28.3,17.7
			c-0.6,0-1.2,0.3-1.6,0.8l-0.1-0.7h-0.8v7.4l0.9-0.1v-2.5c0.3,0.4,0.8,0.6,1.4,0.6c1.4,0,2.1-1.2,2.1-2.8
			C30.2,18.8,29.7,17.7,28.3,17.7z M27.9,22.4c-0.5,0-0.9-0.2-1.2-0.6v-2.6c0.3-0.4,0.7-0.8,1.3-0.8c0.8,0,1.2,0.6,1.2,2
			C29.2,21.8,28.8,22.4,27.9,22.4z"/>
	</g>
</g>
</svg>
