<?xml version="1.0" encoding="utf-8"?>
<!-- Generator: Adobe Illustrator 18.0.0, SVG Export Plug-In . SVG Version: 6.00 Build 0)  -->
<!DOCTYPE svg PUBLIC "-//W3C//DTD SVG 1.1//EN" "http://www.w3.org/Graphics/SVG/1.1/DTD/svg11.dtd">
<svg version="1.1" id="Layer_1" xmlns="http://www.w3.org/2000/svg" xmlns:xlink="http://www.w3.org/1999/xlink" x="0px" y="0px"
	 viewBox="0 0 40 40" enable-background="new 0 0 40 40" xml:space="preserve">
<g>
	<g>
		<path d="M13.2,35.9h0.9v-5.3h-0.9V35.9z M10.2,31.6l-0.1-1.1H9.3v5.3h0.9v-3c0.2-1,0.6-1.5,1.3-1.5c0.2,0,0.3,0,0.5,0.1l0.2-0.9
			c-0.2,0-0.3-0.1-0.5-0.1C11,30.4,10.5,30.8,10.2,31.6z M19.9,30c-0.6,0.3-1.1,0.5-2.4,0.5c-1.2,0-2,0.8-2,1.8
			c0,0.7,0.3,1.1,0.9,1.5c-0.4,0.2-0.6,0.6-0.6,0.9c0,0.5,0.4,1,1.4,1H18c0.7,0,1.1,0.3,1.1,0.8c0,0.5-0.4,0.8-1.5,0.8
			c-1.2,0-1.4-0.3-1.4-0.9h-0.8c0,1.1,0.5,1.6,2.2,1.6c1.6,0,2.5-0.6,2.5-1.6c0-0.8-0.7-1.5-1.8-1.5h-0.8c-0.5,0-0.7-0.2-0.7-0.4
			c0-0.2,0.1-0.4,0.3-0.5c0.2,0.1,0.4,0.1,0.7,0.1c1.3,0,2-0.8,2-1.8c0-0.6-0.3-1.1-0.9-1.3c0.6,0,1.1,0,1.5-0.2L19.9,30z
			 M17.6,33.5c-0.7,0-1.1-0.5-1.1-1.2c0-0.7,0.4-1.2,1.1-1.2c0.7,0,1.1,0.4,1.1,1.2C18.7,33,18.3,33.5,17.6,33.5z M4.9,28.8
			c-1.7,0-2.9,1.3-2.9,3.6C2,34.7,3.2,36,4.9,36c1.7,0,2.9-1.3,2.9-3.6C7.8,30.1,6.7,28.8,4.9,28.8z M4.9,35.2
			c-1.1,0-1.9-0.8-1.9-2.8s0.7-2.8,1.9-2.8c1.2,0,1.9,0.8,1.9,2.8C6.8,34.4,6.1,35.2,4.9,35.2z M13.6,28c-0.4,0-0.6,0.3-0.6,0.6
			c0,0.4,0.3,0.6,0.6,0.6c0.4,0,0.6-0.3,0.6-0.6C14.3,28.3,14,28,13.6,28z M33.3,34.6v-2.4c0-1.1-0.6-1.8-1.8-1.8
			c-0.6,0-1.2,0.1-1.8,0.4l0.2,0.7c0.5-0.2,1-0.3,1.4-0.3c0.7,0,1.1,0.3,1.1,1v0.4h-0.8c-1.5,0-2.3,0.6-2.3,1.7
			c0,0.9,0.6,1.6,1.7,1.6c0.6,0,1.2-0.2,1.6-0.8c0.2,0.5,0.5,0.7,1,0.8l0.2-0.6C33.5,35.2,33.3,35.1,33.3,34.6z M32.4,34.5
			c-0.3,0.6-0.7,0.8-1.2,0.8c-0.6,0-0.9-0.3-0.9-1c0-0.7,0.5-1.1,1.5-1.1h0.7V34.5z M33.1,2.5H6.6c-0.7,0-0.9,0.9-0.9,0.9v18.5
			c0,0,0.2,0.9,0.9,0.9h26.5c0.7,0,0.9-0.9,0.9-0.9V3.3C34,3.3,33.8,2.5,33.1,2.5z M32.3,21.1h-25v-17h25V21.1z M36.8,35.2
			c-0.1,0-0.2,0.1-0.3,0.1c-0.2,0-0.3-0.1-0.3-0.4v-6.5l-0.9,0.1v6.4c0,0.8,0.4,1.2,1,1.2c0.3,0,0.5-0.1,0.8-0.2L36.8,35.2z
			 M26.4,30.4c-0.7,0-1.2,0.4-1.6,0.9l-0.1-0.8H24v5.3h0.9v-3.8c0.3-0.6,0.7-0.9,1.3-0.9c0.5,0,0.8,0.2,0.8,1v3.7H28v-3.8
			C28,31.1,27.4,30.4,26.4,30.4z M21.6,28c-0.4,0-0.6,0.3-0.6,0.6c0,0.4,0.3,0.6,0.6,0.6c0.4,0,0.6-0.3,0.6-0.6
			C22.3,28.3,22,28,21.6,28z M21.2,35.9h0.9v-5.3h-0.9V35.9z"/>
	</g>
</g>
</svg>
